<?xml version="1.0" encoding="utf-8"?>
<svg xmlns="http://www.w3.org/2000/svg" xmlns:xlink="http://www.w3.org/1999/xlink" xml:space="preserve" width="990" height="1031.25" viewBox="0 0 990 1031.25"><defs><linearGradient id="pattern-mask-af3cda15329786e666a1713ed1c7793d" x1="0%" y1="0%" x2="12%" y2="100%" gradientUnits="userSpaceOnUse"><stop offset="0%" stop-color="#000000"/><stop offset="100%" stop-color="#8900d5"/></linearGradient>
<mask id="qrmask-af3cda15329786e666a1713ed1c7793d"><g fill="#ffffff"><g transform="scale(41.25)" fill="#fff"><path d="M1,8V2c0-0.6,0.5-1,1-1h6V0H2C0.9,0,0,0.9,0,2v6H1z"/><path d="M16,1h6c0.6,0,1,0.5,1,1v6h1V2c0-1.1-0.9-2-2-2h-6V1z"/><path d="M23,16v6c0,0.6-0.5,1-1,1h-6v1h6c1.1,0,2-0.9,2-2v-6H23z"/><path d="M8,23H2c-0.6,0-1-0.5-1-1v-6H0v6c0,1.1,0.9,2,2,2h6V23z"/></g>
<g>
<g transform="translate(291,99) scale(4.12)"><rect width="6" height="6"/></g>
<g transform="translate(339,99) scale(4.12)"><rect width="6" height="6"/></g>
<g transform="translate(363,99) scale(4.12)"><rect width="6" height="6"/></g>
<g transform="translate(411,99) scale(4.12)"><rect width="6" height="6"/></g>
<g transform="translate(435,99) scale(4.12)"><rect width="6" height="6"/></g>
<g transform="translate(459,99) scale(4.12)"><rect width="6" height="6"/></g>
<g transform="translate(483,99) scale(4.12)"><rect width="6" height="6"/></g>
<g transform="translate(531,99) scale(4.12)"><rect width="6" height="6"/></g>
<g transform="translate(579,99) scale(4.12)"><rect width="6" height="6"/></g>
<g transform="translate(603,99) scale(4.12)"><rect width="6" height="6"/></g>
<g transform="translate(627,99) scale(4.12)"><rect width="6" height="6"/></g>
<g transform="translate(675,99) scale(4.12)"><rect width="6" height="6"/></g>
<g transform="translate(315,123) scale(4.12)"><rect width="6" height="6"/></g>
<g transform="translate(339,123) scale(4.12)"><rect width="6" height="6"/></g>
<g transform="translate(411,123) scale(4.12)"><rect width="6" height="6"/></g>
<g transform="translate(435,123) scale(4.12)"><rect width="6" height="6"/></g>
<g transform="translate(459,123) scale(4.12)"><rect width="6" height="6"/></g>
<g transform="translate(483,123) scale(4.12)"><rect width="6" height="6"/></g>
<g transform="translate(531,123) scale(4.12)"><rect width="6" height="6"/></g>
<g transform="translate(579,123) scale(4.12)"><rect width="6" height="6"/></g>
<g transform="translate(603,123) scale(4.12)"><rect width="6" height="6"/></g>
<g transform="translate(627,123) scale(4.12)"><rect width="6" height="6"/></g>
<g transform="translate(651,123) scale(4.12)"><rect width="6" height="6"/></g>
<g transform="translate(411,147) scale(4.12)"><rect width="6" height="6"/></g>
<g transform="translate(459,147) scale(4.12)"><rect width="6" height="6"/></g>
<g transform="translate(555,147) scale(4.12)"><rect width="6" height="6"/></g>
<g transform="translate(579,147) scale(4.12)"><rect width="6" height="6"/></g>
<g transform="translate(603,147) scale(4.12)"><rect width="6" height="6"/></g>
<g transform="translate(675,147) scale(4.12)"><rect width="6" height="6"/></g>
<g transform="translate(315,171) scale(4.12)"><rect width="6" height="6"/></g>
<g transform="translate(363,171) scale(4.12)"><rect width="6" height="6"/></g>
<g transform="translate(411,171) scale(4.12)"><rect width="6" height="6"/></g>
<g transform="translate(531,171) scale(4.12)"><rect width="6" height="6"/></g>
<g transform="translate(603,171) scale(4.12)"><rect width="6" height="6"/></g>
<g transform="translate(627,171) scale(4.12)"><rect width="6" height="6"/></g>
<g transform="translate(675,171) scale(4.12)"><rect width="6" height="6"/></g>
<g transform="translate(291,195) scale(4.12)"><rect width="6" height="6"/></g>
<g transform="translate(411,195) scale(4.12)"><rect width="6" height="6"/></g>
<g transform="translate(435,195) scale(4.12)"><rect width="6" height="6"/></g>
<g transform="translate(459,195) scale(4.12)"><rect width="6" height="6"/></g>
<g transform="translate(579,195) scale(4.12)"><rect width="6" height="6"/></g>
<g transform="translate(603,195) scale(4.12)"><rect width="6" height="6"/></g>
<g transform="translate(627,195) scale(4.12)"><rect width="6" height="6"/></g>
<g transform="translate(291,219) scale(4.12)"><rect width="6" height="6"/></g>
<g transform="translate(339,219) scale(4.12)"><rect width="6" height="6"/></g>
<g transform="translate(387,219) scale(4.12)"><rect width="6" height="6"/></g>
<g transform="translate(435,219) scale(4.12)"><rect width="6" height="6"/></g>
<g transform="translate(507,219) scale(4.12)"><rect width="6" height="6"/></g>
<g transform="translate(555,219) scale(4.12)"><rect width="6" height="6"/></g>
<g transform="translate(651,219) scale(4.12)"><rect width="6" height="6"/></g>
<g transform="translate(675,219) scale(4.12)"><rect width="6" height="6"/></g>
<g transform="translate(291,243) scale(4.12)"><rect width="6" height="6"/></g>
<g transform="translate(339,243) scale(4.12)"><rect width="6" height="6"/></g>
<g transform="translate(387,243) scale(4.12)"><rect width="6" height="6"/></g>
<g transform="translate(435,243) scale(4.12)"><rect width="6" height="6"/></g>
<g transform="translate(483,243) scale(4.12)"><rect width="6" height="6"/></g>
<g transform="translate(531,243) scale(4.12)"><rect width="6" height="6"/></g>
<g transform="translate(579,243) scale(4.12)"><rect width="6" height="6"/></g>
<g transform="translate(627,243) scale(4.12)"><rect width="6" height="6"/></g>
<g transform="translate(675,243) scale(4.12)"><rect width="6" height="6"/></g>
<g transform="translate(387,267) scale(4.12)"><rect width="6" height="6"/></g>
<g transform="translate(411,267) scale(4.12)"><rect width="6" height="6"/></g>
<g transform="translate(483,267) scale(4.12)"><rect width="6" height="6"/></g>
<g transform="translate(507,267) scale(4.12)"><rect width="6" height="6"/></g>
<g transform="translate(531,267) scale(4.12)"><rect width="6" height="6"/></g>
<g transform="translate(555,267) scale(4.12)"><rect width="6" height="6"/></g>
<g transform="translate(579,267) scale(4.12)"><rect width="6" height="6"/></g>
<g transform="translate(603,267) scale(4.12)"><rect width="6" height="6"/></g>
<g transform="translate(627,267) scale(4.12)"><rect width="6" height="6"/></g>
<g transform="translate(123,291) scale(4.12)"><rect width="6" height="6"/></g>
<g transform="translate(147,291) scale(4.12)"><rect width="6" height="6"/></g>
<g transform="translate(171,291) scale(4.12)"><rect width="6" height="6"/></g>
<g transform="translate(195,291) scale(4.12)"><rect width="6" height="6"/></g>
<g transform="translate(219,291) scale(4.12)"><rect width="6" height="6"/></g>
<g transform="translate(243,291) scale(4.12)"><rect width="6" height="6"/></g>
<g transform="translate(267,291) scale(4.12)"><rect width="6" height="6"/></g>
<g transform="translate(339,291) scale(4.12)"><rect width="6" height="6"/></g>
<g transform="translate(387,291) scale(4.12)"><rect width="6" height="6"/></g>
<g transform="translate(411,291) scale(4.12)"><rect width="6" height="6"/></g>
<g transform="translate(435,291) scale(4.12)"><rect width="6" height="6"/></g>
<g transform="translate(459,291) scale(4.12)"><rect width="6" height="6"/></g>
<g transform="translate(483,291) scale(4.12)"><rect width="6" height="6"/></g>
<g transform="translate(531,291) scale(4.12)"><rect width="6" height="6"/></g>
<g transform="translate(555,291) scale(4.12)"><rect width="6" height="6"/></g>
<g transform="translate(579,291) scale(4.12)"><rect width="6" height="6"/></g>
<g transform="translate(675,291) scale(4.12)"><rect width="6" height="6"/></g>
<g transform="translate(747,291) scale(4.12)"><rect width="6" height="6"/></g>
<g transform="translate(771,291) scale(4.12)"><rect width="6" height="6"/></g>
<g transform="translate(867,291) scale(4.12)"><rect width="6" height="6"/></g>
<g transform="translate(99,315) scale(4.12)"><rect width="6" height="6"/></g>
<g transform="translate(123,315) scale(4.12)"><rect width="6" height="6"/></g>
<g transform="translate(195,315) scale(4.12)"><rect width="6" height="6"/></g>
<g transform="translate(219,315) scale(4.12)"><rect width="6" height="6"/></g>
<g transform="translate(291,315) scale(4.12)"><rect width="6" height="6"/></g>
<g transform="translate(315,315) scale(4.12)"><rect width="6" height="6"/></g>
<g transform="translate(339,315) scale(4.12)"><rect width="6" height="6"/></g>
<g transform="translate(363,315) scale(4.12)"><rect width="6" height="6"/></g>
<g transform="translate(387,315) scale(4.12)"><rect width="6" height="6"/></g>
<g transform="translate(435,315) scale(4.12)"><rect width="6" height="6"/></g>
<g transform="translate(459,315) scale(4.12)"><rect width="6" height="6"/></g>
<g transform="translate(507,315) scale(4.12)"><rect width="6" height="6"/></g>
<g transform="translate(531,315) scale(4.12)"><rect width="6" height="6"/></g>
<g transform="translate(603,315) scale(4.12)"><rect width="6" height="6"/></g>
<g transform="translate(723,315) scale(4.12)"><rect width="6" height="6"/></g>
<g transform="translate(747,315) scale(4.12)"><rect width="6" height="6"/></g>
<g transform="translate(795,315) scale(4.12)"><rect width="6" height="6"/></g>
<g transform="translate(819,315) scale(4.12)"><rect width="6" height="6"/></g>
<g transform="translate(867,315) scale(4.12)"><rect width="6" height="6"/></g>
<g transform="translate(99,339) scale(4.12)"><rect width="6" height="6"/></g>
<g transform="translate(123,339) scale(4.12)"><rect width="6" height="6"/></g>
<g transform="translate(171,339) scale(4.12)"><rect width="6" height="6"/></g>
<g transform="translate(243,339) scale(4.12)"><rect width="6" height="6"/></g>
<g transform="translate(315,339) scale(4.12)"><rect width="6" height="6"/></g>
<g transform="translate(339,339) scale(4.12)"><rect width="6" height="6"/></g>
<g transform="translate(411,339) scale(4.12)"><rect width="6" height="6"/></g>
<g transform="translate(459,339) scale(4.12)"><rect width="6" height="6"/></g>
<g transform="translate(483,339) scale(4.12)"><rect width="6" height="6"/></g>
<g transform="translate(507,339) scale(4.12)"><rect width="6" height="6"/></g>
<g transform="translate(555,339) scale(4.12)"><rect width="6" height="6"/></g>
<g transform="translate(699,339) scale(4.12)"><rect width="6" height="6"/></g>
<g transform="translate(771,339) scale(4.12)"><rect width="6" height="6"/></g>
<g transform="translate(819,339) scale(4.12)"><rect width="6" height="6"/></g>
<g transform="translate(843,339) scale(4.12)"><rect width="6" height="6"/></g>
<g transform="translate(867,339) scale(4.12)"><rect width="6" height="6"/></g>
<g transform="translate(123,363) scale(4.12)"><rect width="6" height="6"/></g>
<g transform="translate(219,363) scale(4.12)"><rect width="6" height="6"/></g>
<g transform="translate(267,363) scale(4.12)"><rect width="6" height="6"/></g>
<g transform="translate(339,363) scale(4.12)"><rect width="6" height="6"/></g>
<g transform="translate(387,363) scale(4.12)"><rect width="6" height="6"/></g>
<g transform="translate(435,363) scale(4.12)"><rect width="6" height="6"/></g>
<g transform="translate(507,363) scale(4.12)"><rect width="6" height="6"/></g>
<g transform="translate(531,363) scale(4.12)"><rect width="6" height="6"/></g>
<g transform="translate(555,363) scale(4.12)"><rect width="6" height="6"/></g>
<g transform="translate(579,363) scale(4.12)"><rect width="6" height="6"/></g>
<g transform="translate(675,363) scale(4.12)"><rect width="6" height="6"/></g>
<g transform="translate(699,363) scale(4.12)"><rect width="6" height="6"/></g>
<g transform="translate(723,363) scale(4.12)"><rect width="6" height="6"/></g>
<g transform="translate(771,363) scale(4.12)"><rect width="6" height="6"/></g>
<g transform="translate(795,363) scale(4.12)"><rect width="6" height="6"/></g>
<g transform="translate(819,363) scale(4.12)"><rect width="6" height="6"/></g>
<g transform="translate(867,363) scale(4.12)"><rect width="6" height="6"/></g>
<g transform="translate(99,387) scale(4.12)"><rect width="6" height="6"/></g>
<g transform="translate(171,387) scale(4.12)"><rect width="6" height="6"/></g>
<g transform="translate(195,387) scale(4.12)"><rect width="6" height="6"/></g>
<g transform="translate(243,387) scale(4.12)"><rect width="6" height="6"/></g>
<g transform="translate(291,387) scale(4.12)"><rect width="6" height="6"/></g>
<g transform="translate(315,387) scale(4.12)"><rect width="6" height="6"/></g>
<g transform="translate(339,387) scale(4.12)"><rect width="6" height="6"/></g>
<g transform="translate(363,387) scale(4.12)"><rect width="6" height="6"/></g>
<g transform="translate(387,387) scale(4.12)"><rect width="6" height="6"/></g>
<g transform="translate(411,387) scale(4.12)"><rect width="6" height="6"/></g>
<g transform="translate(483,387) scale(4.12)"><rect width="6" height="6"/></g>
<g transform="translate(579,387) scale(4.12)"><rect width="6" height="6"/></g>
<g transform="translate(627,387) scale(4.12)"><rect width="6" height="6"/></g>
<g transform="translate(651,387) scale(4.12)"><rect width="6" height="6"/></g>
<g transform="translate(675,387) scale(4.12)"><rect width="6" height="6"/></g>
<g transform="translate(795,387) scale(4.12)"><rect width="6" height="6"/></g>
<g transform="translate(219,411) scale(4.12)"><rect width="6" height="6"/></g>
<g transform="translate(339,411) scale(4.12)"><rect width="6" height="6"/></g>
<g transform="translate(387,411) scale(4.12)"><rect width="6" height="6"/></g>
<g transform="translate(411,411) scale(4.12)"><rect width="6" height="6"/></g>
<g transform="translate(459,411) scale(4.12)"><rect width="6" height="6"/></g>
<g transform="translate(483,411) scale(4.12)"><rect width="6" height="6"/></g>
<g transform="translate(531,411) scale(4.12)"><rect width="6" height="6"/></g>
<g transform="translate(603,411) scale(4.12)"><rect width="6" height="6"/></g>
<g transform="translate(627,411) scale(4.12)"><rect width="6" height="6"/></g>
<g transform="translate(651,411) scale(4.12)"><rect width="6" height="6"/></g>
<g transform="translate(675,411) scale(4.12)"><rect width="6" height="6"/></g>
<g transform="translate(723,411) scale(4.12)"><rect width="6" height="6"/></g>
<g transform="translate(795,411) scale(4.12)"><rect width="6" height="6"/></g>
<g transform="translate(819,411) scale(4.12)"><rect width="6" height="6"/></g>
<g transform="translate(843,411) scale(4.12)"><rect width="6" height="6"/></g>
<g transform="translate(867,411) scale(4.12)"><rect width="6" height="6"/></g>
<g transform="translate(195,435) scale(4.12)"><rect width="6" height="6"/></g>
<g transform="translate(219,435) scale(4.12)"><rect width="6" height="6"/></g>
<g transform="translate(243,435) scale(4.12)"><rect width="6" height="6"/></g>
<g transform="translate(291,435) scale(4.12)"><rect width="6" height="6"/></g>
<g transform="translate(339,435) scale(4.12)"><rect width="6" height="6"/></g>
<g transform="translate(363,435) scale(4.12)"><rect width="6" height="6"/></g>
<g transform="translate(387,435) scale(4.12)"><rect width="6" height="6"/></g>
<g transform="translate(483,435) scale(4.12)"><rect width="6" height="6"/></g>
<g transform="translate(507,435) scale(4.12)"><rect width="6" height="6"/></g>
<g transform="translate(579,435) scale(4.12)"><rect width="6" height="6"/></g>
<g transform="translate(675,435) scale(4.12)"><rect width="6" height="6"/></g>
<g transform="translate(699,435) scale(4.12)"><rect width="6" height="6"/></g>
<g transform="translate(723,435) scale(4.12)"><rect width="6" height="6"/></g>
<g transform="translate(747,435) scale(4.12)"><rect width="6" height="6"/></g>
<g transform="translate(771,435) scale(4.12)"><rect width="6" height="6"/></g>
<g transform="translate(843,435) scale(4.12)"><rect width="6" height="6"/></g>
<g transform="translate(99,459) scale(4.12)"><rect width="6" height="6"/></g>
<g transform="translate(147,459) scale(4.12)"><rect width="6" height="6"/></g>
<g transform="translate(195,459) scale(4.12)"><rect width="6" height="6"/></g>
<g transform="translate(267,459) scale(4.12)"><rect width="6" height="6"/></g>
<g transform="translate(339,459) scale(4.12)"><rect width="6" height="6"/></g>
<g transform="translate(387,459) scale(4.12)"><rect width="6" height="6"/></g>
<g transform="translate(507,459) scale(4.12)"><rect width="6" height="6"/></g>
<g transform="translate(531,459) scale(4.12)"><rect width="6" height="6"/></g>
<g transform="translate(603,459) scale(4.12)"><rect width="6" height="6"/></g>
<g transform="translate(627,459) scale(4.12)"><rect width="6" height="6"/></g>
<g transform="translate(699,459) scale(4.12)"><rect width="6" height="6"/></g>
<g transform="translate(723,459) scale(4.12)"><rect width="6" height="6"/></g>
<g transform="translate(147,483) scale(4.12)"><rect width="6" height="6"/></g>
<g transform="translate(171,483) scale(4.12)"><rect width="6" height="6"/></g>
<g transform="translate(219,483) scale(4.12)"><rect width="6" height="6"/></g>
<g transform="translate(243,483) scale(4.12)"><rect width="6" height="6"/></g>
<g transform="translate(267,483) scale(4.12)"><rect width="6" height="6"/></g>
<g transform="translate(291,483) scale(4.12)"><rect width="6" height="6"/></g>
<g transform="translate(387,483) scale(4.12)"><rect width="6" height="6"/></g>
<g transform="translate(411,483) scale(4.12)"><rect width="6" height="6"/></g>
<g transform="translate(435,483) scale(4.12)"><rect width="6" height="6"/></g>
<g transform="translate(459,483) scale(4.12)"><rect width="6" height="6"/></g>
<g transform="translate(483,483) scale(4.12)"><rect width="6" height="6"/></g>
<g transform="translate(507,483) scale(4.12)"><rect width="6" height="6"/></g>
<g transform="translate(579,483) scale(4.12)"><rect width="6" height="6"/></g>
<g transform="translate(603,483) scale(4.12)"><rect width="6" height="6"/></g>
<g transform="translate(699,483) scale(4.12)"><rect width="6" height="6"/></g>
<g transform="translate(747,483) scale(4.12)"><rect width="6" height="6"/></g>
<g transform="translate(771,483) scale(4.12)"><rect width="6" height="6"/></g>
<g transform="translate(795,483) scale(4.12)"><rect width="6" height="6"/></g>
<g transform="translate(819,483) scale(4.12)"><rect width="6" height="6"/></g>
<g transform="translate(867,483) scale(4.12)"><rect width="6" height="6"/></g>
<g transform="translate(123,507) scale(4.12)"><rect width="6" height="6"/></g>
<g transform="translate(147,507) scale(4.12)"><rect width="6" height="6"/></g>
<g transform="translate(171,507) scale(4.12)"><rect width="6" height="6"/></g>
<g transform="translate(195,507) scale(4.12)"><rect width="6" height="6"/></g>
<g transform="translate(315,507) scale(4.12)"><rect width="6" height="6"/></g>
<g transform="translate(339,507) scale(4.12)"><rect width="6" height="6"/></g>
<g transform="translate(411,507) scale(4.12)"><rect width="6" height="6"/></g>
<g transform="translate(435,507) scale(4.12)"><rect width="6" height="6"/></g>
<g transform="translate(459,507) scale(4.12)"><rect width="6" height="6"/></g>
<g transform="translate(483,507) scale(4.12)"><rect width="6" height="6"/></g>
<g transform="translate(555,507) scale(4.12)"><rect width="6" height="6"/></g>
<g transform="translate(579,507) scale(4.12)"><rect width="6" height="6"/></g>
<g transform="translate(603,507) scale(4.12)"><rect width="6" height="6"/></g>
<g transform="translate(651,507) scale(4.12)"><rect width="6" height="6"/></g>
<g transform="translate(723,507) scale(4.12)"><rect width="6" height="6"/></g>
<g transform="translate(747,507) scale(4.12)"><rect width="6" height="6"/></g>
<g transform="translate(795,507) scale(4.12)"><rect width="6" height="6"/></g>
<g transform="translate(819,507) scale(4.12)"><rect width="6" height="6"/></g>
<g transform="translate(867,507) scale(4.12)"><rect width="6" height="6"/></g>
<g transform="translate(99,531) scale(4.12)"><rect width="6" height="6"/></g>
<g transform="translate(123,531) scale(4.12)"><rect width="6" height="6"/></g>
<g transform="translate(171,531) scale(4.12)"><rect width="6" height="6"/></g>
<g transform="translate(243,531) scale(4.12)"><rect width="6" height="6"/></g>
<g transform="translate(315,531) scale(4.12)"><rect width="6" height="6"/></g>
<g transform="translate(339,531) scale(4.12)"><rect width="6" height="6"/></g>
<g transform="translate(363,531) scale(4.12)"><rect width="6" height="6"/></g>
<g transform="translate(387,531) scale(4.12)"><rect width="6" height="6"/></g>
<g transform="translate(411,531) scale(4.12)"><rect width="6" height="6"/></g>
<g transform="translate(459,531) scale(4.12)"><rect width="6" height="6"/></g>
<g transform="translate(483,531) scale(4.12)"><rect width="6" height="6"/></g>
<g transform="translate(603,531) scale(4.12)"><rect width="6" height="6"/></g>
<g transform="translate(699,531) scale(4.12)"><rect width="6" height="6"/></g>
<g transform="translate(747,531) scale(4.12)"><rect width="6" height="6"/></g>
<g transform="translate(771,531) scale(4.12)"><rect width="6" height="6"/></g>
<g transform="translate(819,531) scale(4.12)"><rect width="6" height="6"/></g>
<g transform="translate(147,555) scale(4.12)"><rect width="6" height="6"/></g>
<g transform="translate(171,555) scale(4.12)"><rect width="6" height="6"/></g>
<g transform="translate(267,555) scale(4.12)"><rect width="6" height="6"/></g>
<g transform="translate(315,555) scale(4.12)"><rect width="6" height="6"/></g>
<g transform="translate(387,555) scale(4.12)"><rect width="6" height="6"/></g>
<g transform="translate(411,555) scale(4.12)"><rect width="6" height="6"/></g>
<g transform="translate(459,555) scale(4.12)"><rect width="6" height="6"/></g>
<g transform="translate(531,555) scale(4.12)"><rect width="6" height="6"/></g>
<g transform="translate(555,555) scale(4.12)"><rect width="6" height="6"/></g>
<g transform="translate(579,555) scale(4.12)"><rect width="6" height="6"/></g>
<g transform="translate(603,555) scale(4.12)"><rect width="6" height="6"/></g>
<g transform="translate(651,555) scale(4.12)"><rect width="6" height="6"/></g>
<g transform="translate(699,555) scale(4.12)"><rect width="6" height="6"/></g>
<g transform="translate(723,555) scale(4.12)"><rect width="6" height="6"/></g>
<g transform="translate(747,555) scale(4.12)"><rect width="6" height="6"/></g>
<g transform="translate(771,555) scale(4.12)"><rect width="6" height="6"/></g>
<g transform="translate(795,555) scale(4.12)"><rect width="6" height="6"/></g>
<g transform="translate(819,555) scale(4.12)"><rect width="6" height="6"/></g>
<g transform="translate(867,555) scale(4.12)"><rect width="6" height="6"/></g>
<g transform="translate(123,579) scale(4.12)"><rect width="6" height="6"/></g>
<g transform="translate(171,579) scale(4.12)"><rect width="6" height="6"/></g>
<g transform="translate(195,579) scale(4.12)"><rect width="6" height="6"/></g>
<g transform="translate(243,579) scale(4.12)"><rect width="6" height="6"/></g>
<g transform="translate(267,579) scale(4.12)"><rect width="6" height="6"/></g>
<g transform="translate(315,579) scale(4.12)"><rect width="6" height="6"/></g>
<g transform="translate(363,579) scale(4.12)"><rect width="6" height="6"/></g>
<g transform="translate(387,579) scale(4.12)"><rect width="6" height="6"/></g>
<g transform="translate(411,579) scale(4.12)"><rect width="6" height="6"/></g>
<g transform="translate(507,579) scale(4.12)"><rect width="6" height="6"/></g>
<g transform="translate(531,579) scale(4.12)"><rect width="6" height="6"/></g>
<g transform="translate(603,579) scale(4.12)"><rect width="6" height="6"/></g>
<g transform="translate(699,579) scale(4.12)"><rect width="6" height="6"/></g>
<g transform="translate(771,579) scale(4.12)"><rect width="6" height="6"/></g>
<g transform="translate(795,579) scale(4.12)"><rect width="6" height="6"/></g>
<g transform="translate(843,579) scale(4.12)"><rect width="6" height="6"/></g>
<g transform="translate(99,603) scale(4.12)"><rect width="6" height="6"/></g>
<g transform="translate(123,603) scale(4.12)"><rect width="6" height="6"/></g>
<g transform="translate(195,603) scale(4.12)"><rect width="6" height="6"/></g>
<g transform="translate(339,603) scale(4.12)"><rect width="6" height="6"/></g>
<g transform="translate(387,603) scale(4.12)"><rect width="6" height="6"/></g>
<g transform="translate(411,603) scale(4.12)"><rect width="6" height="6"/></g>
<g transform="translate(459,603) scale(4.12)"><rect width="6" height="6"/></g>
<g transform="translate(483,603) scale(4.12)"><rect width="6" height="6"/></g>
<g transform="translate(579,603) scale(4.12)"><rect width="6" height="6"/></g>
<g transform="translate(603,603) scale(4.12)"><rect width="6" height="6"/></g>
<g transform="translate(723,603) scale(4.12)"><rect width="6" height="6"/></g>
<g transform="translate(747,603) scale(4.12)"><rect width="6" height="6"/></g>
<g transform="translate(795,603) scale(4.12)"><rect width="6" height="6"/></g>
<g transform="translate(819,603) scale(4.12)"><rect width="6" height="6"/></g>
<g transform="translate(867,603) scale(4.12)"><rect width="6" height="6"/></g>
<g transform="translate(99,627) scale(4.12)"><rect width="6" height="6"/></g>
<g transform="translate(171,627) scale(4.12)"><rect width="6" height="6"/></g>
<g transform="translate(219,627) scale(4.12)"><rect width="6" height="6"/></g>
<g transform="translate(243,627) scale(4.12)"><rect width="6" height="6"/></g>
<g transform="translate(291,627) scale(4.12)"><rect width="6" height="6"/></g>
<g transform="translate(315,627) scale(4.12)"><rect width="6" height="6"/></g>
<g transform="translate(339,627) scale(4.12)"><rect width="6" height="6"/></g>
<g transform="translate(387,627) scale(4.12)"><rect width="6" height="6"/></g>
<g transform="translate(483,627) scale(4.12)"><rect width="6" height="6"/></g>
<g transform="translate(507,627) scale(4.12)"><rect width="6" height="6"/></g>
<g transform="translate(555,627) scale(4.12)"><rect width="6" height="6"/></g>
<g transform="translate(651,627) scale(4.12)"><rect width="6" height="6"/></g>
<g transform="translate(675,627) scale(4.12)"><rect width="6" height="6"/></g>
<g transform="translate(843,627) scale(4.12)"><rect width="6" height="6"/></g>
<g transform="translate(99,651) scale(4.12)"><rect width="6" height="6"/></g>
<g transform="translate(219,651) scale(4.12)"><rect width="6" height="6"/></g>
<g transform="translate(291,651) scale(4.12)"><rect width="6" height="6"/></g>
<g transform="translate(363,651) scale(4.12)"><rect width="6" height="6"/></g>
<g transform="translate(387,651) scale(4.12)"><rect width="6" height="6"/></g>
<g transform="translate(435,651) scale(4.12)"><rect width="6" height="6"/></g>
<g transform="translate(531,651) scale(4.12)"><rect width="6" height="6"/></g>
<g transform="translate(555,651) scale(4.12)"><rect width="6" height="6"/></g>
<g transform="translate(579,651) scale(4.12)"><rect width="6" height="6"/></g>
<g transform="translate(603,651) scale(4.12)"><rect width="6" height="6"/></g>
<g transform="translate(627,651) scale(4.12)"><rect width="6" height="6"/></g>
<g transform="translate(651,651) scale(4.12)"><rect width="6" height="6"/></g>
<g transform="translate(675,651) scale(4.12)"><rect width="6" height="6"/></g>
<g transform="translate(699,651) scale(4.12)"><rect width="6" height="6"/></g>
<g transform="translate(795,651) scale(4.12)"><rect width="6" height="6"/></g>
<g transform="translate(99,675) scale(4.12)"><rect width="6" height="6"/></g>
<g transform="translate(171,675) scale(4.12)"><rect width="6" height="6"/></g>
<g transform="translate(243,675) scale(4.12)"><rect width="6" height="6"/></g>
<g transform="translate(291,675) scale(4.12)"><rect width="6" height="6"/></g>
<g transform="translate(339,675) scale(4.12)"><rect width="6" height="6"/></g>
<g transform="translate(387,675) scale(4.12)"><rect width="6" height="6"/></g>
<g transform="translate(411,675) scale(4.12)"><rect width="6" height="6"/></g>
<g transform="translate(435,675) scale(4.12)"><rect width="6" height="6"/></g>
<g transform="translate(459,675) scale(4.12)"><rect width="6" height="6"/></g>
<g transform="translate(507,675) scale(4.12)"><rect width="6" height="6"/></g>
<g transform="translate(555,675) scale(4.12)"><rect width="6" height="6"/></g>
<g transform="translate(675,675) scale(4.12)"><rect width="6" height="6"/></g>
<g transform="translate(699,675) scale(4.12)"><rect width="6" height="6"/></g>
<g transform="translate(723,675) scale(4.12)"><rect width="6" height="6"/></g>
<g transform="translate(747,675) scale(4.12)"><rect width="6" height="6"/></g>
<g transform="translate(771,675) scale(4.12)"><rect width="6" height="6"/></g>
<g transform="translate(795,675) scale(4.12)"><rect width="6" height="6"/></g>
<g transform="translate(843,675) scale(4.12)"><rect width="6" height="6"/></g>
<g transform="translate(867,675) scale(4.12)"><rect width="6" height="6"/></g>
<g transform="translate(291,699) scale(4.12)"><rect width="6" height="6"/></g>
<g transform="translate(315,699) scale(4.12)"><rect width="6" height="6"/></g>
<g transform="translate(339,699) scale(4.12)"><rect width="6" height="6"/></g>
<g transform="translate(387,699) scale(4.12)"><rect width="6" height="6"/></g>
<g transform="translate(411,699) scale(4.12)"><rect width="6" height="6"/></g>
<g transform="translate(435,699) scale(4.12)"><rect width="6" height="6"/></g>
<g transform="translate(459,699) scale(4.12)"><rect width="6" height="6"/></g>
<g transform="translate(555,699) scale(4.12)"><rect width="6" height="6"/></g>
<g transform="translate(579,699) scale(4.12)"><rect width="6" height="6"/></g>
<g transform="translate(675,699) scale(4.12)"><rect width="6" height="6"/></g>
<g transform="translate(771,699) scale(4.12)"><rect width="6" height="6"/></g>
<g transform="translate(819,699) scale(4.12)"><rect width="6" height="6"/></g>
<g transform="translate(843,699) scale(4.12)"><rect width="6" height="6"/></g>
<g transform="translate(291,723) scale(4.12)"><rect width="6" height="6"/></g>
<g transform="translate(315,723) scale(4.12)"><rect width="6" height="6"/></g>
<g transform="translate(339,723) scale(4.12)"><rect width="6" height="6"/></g>
<g transform="translate(411,723) scale(4.12)"><rect width="6" height="6"/></g>
<g transform="translate(459,723) scale(4.12)"><rect width="6" height="6"/></g>
<g transform="translate(483,723) scale(4.12)"><rect width="6" height="6"/></g>
<g transform="translate(507,723) scale(4.12)"><rect width="6" height="6"/></g>
<g transform="translate(531,723) scale(4.12)"><rect width="6" height="6"/></g>
<g transform="translate(555,723) scale(4.12)"><rect width="6" height="6"/></g>
<g transform="translate(627,723) scale(4.12)"><rect width="6" height="6"/></g>
<g transform="translate(651,723) scale(4.12)"><rect width="6" height="6"/></g>
<g transform="translate(675,723) scale(4.12)"><rect width="6" height="6"/></g>
<g transform="translate(723,723) scale(4.12)"><rect width="6" height="6"/></g>
<g transform="translate(771,723) scale(4.12)"><rect width="6" height="6"/></g>
<g transform="translate(819,723) scale(4.12)"><rect width="6" height="6"/></g>
<g transform="translate(843,723) scale(4.12)"><rect width="6" height="6"/></g>
<g transform="translate(291,747) scale(4.12)"><rect width="6" height="6"/></g>
<g transform="translate(315,747) scale(4.12)"><rect width="6" height="6"/></g>
<g transform="translate(459,747) scale(4.12)"><rect width="6" height="6"/></g>
<g transform="translate(483,747) scale(4.12)"><rect width="6" height="6"/></g>
<g transform="translate(507,747) scale(4.12)"><rect width="6" height="6"/></g>
<g transform="translate(555,747) scale(4.12)"><rect width="6" height="6"/></g>
<g transform="translate(651,747) scale(4.12)"><rect width="6" height="6"/></g>
<g transform="translate(675,747) scale(4.12)"><rect width="6" height="6"/></g>
<g transform="translate(771,747) scale(4.12)"><rect width="6" height="6"/></g>
<g transform="translate(795,747) scale(4.12)"><rect width="6" height="6"/></g>
<g transform="translate(819,747) scale(4.12)"><rect width="6" height="6"/></g>
<g transform="translate(843,747) scale(4.12)"><rect width="6" height="6"/></g>
<g transform="translate(867,747) scale(4.12)"><rect width="6" height="6"/></g>
<g transform="translate(291,771) scale(4.12)"><rect width="6" height="6"/></g>
<g transform="translate(315,771) scale(4.12)"><rect width="6" height="6"/></g>
<g transform="translate(339,771) scale(4.12)"><rect width="6" height="6"/></g>
<g transform="translate(363,771) scale(4.12)"><rect width="6" height="6"/></g>
<g transform="translate(387,771) scale(4.12)"><rect width="6" height="6"/></g>
<g transform="translate(411,771) scale(4.12)"><rect width="6" height="6"/></g>
<g transform="translate(435,771) scale(4.12)"><rect width="6" height="6"/></g>
<g transform="translate(507,771) scale(4.12)"><rect width="6" height="6"/></g>
<g transform="translate(531,771) scale(4.12)"><rect width="6" height="6"/></g>
<g transform="translate(579,771) scale(4.12)"><rect width="6" height="6"/></g>
<g transform="translate(603,771) scale(4.12)"><rect width="6" height="6"/></g>
<g transform="translate(627,771) scale(4.12)"><rect width="6" height="6"/></g>
<g transform="translate(675,771) scale(4.12)"><rect width="6" height="6"/></g>
<g transform="translate(699,771) scale(4.12)"><rect width="6" height="6"/></g>
<g transform="translate(723,771) scale(4.12)"><rect width="6" height="6"/></g>
<g transform="translate(747,771) scale(4.12)"><rect width="6" height="6"/></g>
<g transform="translate(771,771) scale(4.12)"><rect width="6" height="6"/></g>
<g transform="translate(795,771) scale(4.12)"><rect width="6" height="6"/></g>
<g transform="translate(843,771) scale(4.12)"><rect width="6" height="6"/></g>
<g transform="translate(291,795) scale(4.12)"><rect width="6" height="6"/></g>
<g transform="translate(339,795) scale(4.12)"><rect width="6" height="6"/></g>
<g transform="translate(363,795) scale(4.12)"><rect width="6" height="6"/></g>
<g transform="translate(459,795) scale(4.12)"><rect width="6" height="6"/></g>
<g transform="translate(483,795) scale(4.12)"><rect width="6" height="6"/></g>
<g transform="translate(603,795) scale(4.12)"><rect width="6" height="6"/></g>
<g transform="translate(651,795) scale(4.12)"><rect width="6" height="6"/></g>
<g transform="translate(699,795) scale(4.12)"><rect width="6" height="6"/></g>
<g transform="translate(771,795) scale(4.12)"><rect width="6" height="6"/></g>
<g transform="translate(819,795) scale(4.12)"><rect width="6" height="6"/></g>
<g transform="translate(291,819) scale(4.12)"><rect width="6" height="6"/></g>
<g transform="translate(315,819) scale(4.12)"><rect width="6" height="6"/></g>
<g transform="translate(363,819) scale(4.12)"><rect width="6" height="6"/></g>
<g transform="translate(387,819) scale(4.12)"><rect width="6" height="6"/></g>
<g transform="translate(459,819) scale(4.12)"><rect width="6" height="6"/></g>
<g transform="translate(483,819) scale(4.12)"><rect width="6" height="6"/></g>
<g transform="translate(507,819) scale(4.12)"><rect width="6" height="6"/></g>
<g transform="translate(531,819) scale(4.12)"><rect width="6" height="6"/></g>
<g transform="translate(579,819) scale(4.12)"><rect width="6" height="6"/></g>
<g transform="translate(651,819) scale(4.12)"><rect width="6" height="6"/></g>
<g transform="translate(675,819) scale(4.12)"><rect width="6" height="6"/></g>
<g transform="translate(723,819) scale(4.12)"><rect width="6" height="6"/></g>
<g transform="translate(747,819) scale(4.12)"><rect width="6" height="6"/></g>
<g transform="translate(291,843) scale(4.12)"><rect width="6" height="6"/></g>
<g transform="translate(315,843) scale(4.12)"><rect width="6" height="6"/></g>
<g transform="translate(339,843) scale(4.12)"><rect width="6" height="6"/></g>
<g transform="translate(387,843) scale(4.12)"><rect width="6" height="6"/></g>
<g transform="translate(435,843) scale(4.12)"><rect width="6" height="6"/></g>
<g transform="translate(507,843) scale(4.12)"><rect width="6" height="6"/></g>
<g transform="translate(603,843) scale(4.12)"><rect width="6" height="6"/></g>
<g transform="translate(627,843) scale(4.12)"><rect width="6" height="6"/></g>
<g transform="translate(651,843) scale(4.12)"><rect width="6" height="6"/></g>
<g transform="translate(699,843) scale(4.12)"><rect width="6" height="6"/></g>
<g transform="translate(771,843) scale(4.12)"><rect width="6" height="6"/></g>
<g transform="translate(795,843) scale(4.12)"><rect width="6" height="6"/></g>
<g transform="translate(339,867) scale(4.12)"><rect width="6" height="6"/></g>
<g transform="translate(363,867) scale(4.12)"><rect width="6" height="6"/></g>
<g transform="translate(387,867) scale(4.12)"><rect width="6" height="6"/></g>
<g transform="translate(411,867) scale(4.12)"><rect width="6" height="6"/></g>
<g transform="translate(459,867) scale(4.12)"><rect width="6" height="6"/></g>
<g transform="translate(483,867) scale(4.12)"><rect width="6" height="6"/></g>
<g transform="translate(579,867) scale(4.12)"><rect width="6" height="6"/></g>
<g transform="translate(603,867) scale(4.12)"><rect width="6" height="6"/></g>
<g transform="translate(627,867) scale(4.12)"><rect width="6" height="6"/></g>
<g transform="translate(651,867) scale(4.12)"><rect width="6" height="6"/></g>
<g transform="translate(723,867) scale(4.12)"><rect width="6" height="6"/></g>
<g transform="translate(747,867) scale(4.12)"><rect width="6" height="6"/></g>
<g transform="translate(795,867) scale(4.12)"><rect width="6" height="6"/></g>
<g transform="translate(843,867) scale(4.12)"><rect width="6" height="6"/></g>
<g transform="translate(99,99)"><g transform="scale(12)"><path d="M0,0v14h14V0H0z M12,12H2V2h10V12z"/></g></g>
<g transform="translate(723,99)"><g transform="scale(12)"><path d="M0,0v14h14V0H0z M12,12H2V2h10V12z"/></g></g>
<g transform="translate(99,723)"><g transform="scale(12)"><path d="M0,0v14h14V0H0z M12,12H2V2h10V12z"/></g></g>
<g transform="translate(147,147)"><g transform="scale(12)"><path d="M6,1.8C5.9,1,5.3,0.4,4.5,0.3C3.9,0.2,3.4,0.5,3,0.9C2.6,0.5,2.1,0.3,1.6,0.3C0.8,0.4,0.1,1,0,1.8 C0,2.3,0.1,2.7,0.3,3l0,0l0,0c0.1,0.1,0.2,0.2,0.3,0.3l1.9,2.2c0.3,0.3,0.7,0.3,0.9,0l1.8-1.9c0.1-0.1,0.3-0.3,0.4-0.5 C5.9,2.8,6.1,2.3,6,1.8z"/></g></g>
<g transform="translate(771,147)"><g transform="scale(12)"><path d="M6,1.8C5.9,1,5.3,0.4,4.5,0.3C3.9,0.2,3.4,0.5,3,0.9C2.6,0.5,2.1,0.3,1.6,0.3C0.8,0.4,0.1,1,0,1.8 C0,2.3,0.1,2.7,0.3,3l0,0l0,0c0.1,0.1,0.2,0.2,0.3,0.3l1.9,2.2c0.3,0.3,0.7,0.3,0.9,0l1.8-1.9c0.1-0.1,0.3-0.3,0.4-0.5 C5.9,2.8,6.1,2.3,6,1.8z"/></g></g>
<g transform="translate(147,771)"><g transform="scale(12)"><path d="M6,1.8C5.9,1,5.3,0.4,4.5,0.3C3.9,0.2,3.4,0.5,3,0.9C2.6,0.5,2.1,0.3,1.6,0.3C0.8,0.4,0.1,1,0,1.8 C0,2.3,0.1,2.7,0.3,3l0,0l0,0c0.1,0.1,0.2,0.2,0.3,0.3l1.9,2.2c0.3,0.3,0.7,0.3,0.9,0l1.8-1.9c0.1-0.1,0.3-0.3,0.4-0.5 C5.9,2.8,6.1,2.3,6,1.8z"/></g></g>
</g></g></mask></defs><rect width="916.575" height="916.575" fill="#ffffff" x="41.25" y="41.25"/><rect x="0" y="0" width="990" height="1031.25" mask="url(#qrmask-af3cda15329786e666a1713ed1c7793d)" fill="url(#pattern-mask-af3cda15329786e666a1713ed1c7793d)"/><g transform="translate(406.0546875,976.25) scale(0.34375)"><path fill="#ffffff" d="M2.1,50l52,0l1,19.8l-1.8,0q-4.2-10.1-8.8-13.85t-13.5-3.75l-3.5,0l0,30.9l3.4,0q4.7,0,7.9-3.55t4.5-9.55l1.5,0l0,29.6l-1.7,0q-1.8-7.5-4.85-10.7t-8.35-3.2l-2.4,0l0,32.1l3.8,0q9.2,0,15.65-5.5t8.85-14.1l2,0l-0.8,21.8l-54.9,0l0-2.2l5.9,0l0-65.6l-5.9,0l0-2.2z M65.7,121l0-17.9l1.2,0q2.6,8.7,7,12.2t11,3.5q10.2,0,10.2-6.5q0-2.8-2.5-4.2q-3.9-2.2-10-3.4q-6.8-1.8-11.4-4.8q-5.5-3.6-5.5-11.4t4.8-12.45t12.8-4.65q4.9,0,10.1,2.3q1.9,0.8,2.9,0.8t1.7-0.7t1.7-2.6l1.1,0l0,15.3l-1.2,0q-5.1-13-15.8-13q-4.7,0-7,1.65t-2.3,4.15q0,1.5,0.7,2.35t1.1,1.25t1.3,0.85t1.5,0.7t1.85,0.65t1.85,0.5q6.8,1.7,9.8,2.95t5.7,3.05q5.5,3.8,5.5,12.25t-5,12.8t-13.7,4.35q-6.2,0-12-2.9q-1.2-0.8-1.9-0.8q-2.2,0-4.3,3.7l-1.2,0z M134.8,73.2q-4.4,0-6.3,4.8t-1.9,15.9l0,5.2q0,9.9,2.2,14.2t8.1,4.3t9.4-4t4.5-9.1l1.8,0.2q-1.9,8.6-7,12.4q-5.2,3.9-14.3,3.9q-11.6,0-17.8-6.25t-6.2-18.3t7.05-18.55t19.65-6.5q8.9,0,13.6,3.45t4.7,8.65t-2.25,7.6t-6.2,2.4t-6.35-2.1t-2.4-6.2q0-1.8,0.5-3.6l3.3,0q0.7-2,0.7-3.6q0-4.8-4.8-4.8z M179.1,96.5l2.9,0l0-7.7q0-9.5-1.05-12.75t-4.05-3.25q-1.8,0-3.25,0.95t-1.45,2.6t0.6,3.35l2.5,0q0.8,2.1,0.8,5.05t-2.5,5.1t-6.3,2.15q-8.6,0-8.6-8.3q0-12.3,20.9-12.3q11.9,0,16.45,4.05t4.55,14.85l0,20.3q0,5.2,2.9,5.2q3.4,0,4-10.3l1.5,0.1q-0.4,8.8-3.3,12.1t-9.5,3.3q-12,0-13.8-7.4q-1.3,3.8-3.9,5.6t-7.6,1.8q-14.8,0-14.8-12.1q0-7.1,5.65-9.75t17.35-2.65z M175.65,115.5q0.55,1.5,2.1,1.5t2.9-2.55t1.35-7.05l0-9.3l-0.7,0q-6.2,0-6.2,9.1l0,1.6q0,5.2,0.55,6.7z M210.2,72.4l24.1,0l0,9.2q1.6-4.6,4.9-7.4t10-2.8q15.5,0,15.5,16.7l0,30.1l5.6,0l0,1.8l-28.3,0l0-1.8l4.1,0l0-32.5q0-6-0.8-7.75t-2.9-1.75q-3.2,0-5.65,4.2t-2.45,10.2l0,27.6l4.3,0l0,1.8l-28.4,0l0-1.8l5.5,0l0-44l-5.5,0l0-1.8z M278.55,114.35q-6.45-6.65-6.45-18.5t7.25-18.15t18.45-6.3q22.7,0,21.8,22.8l-28.2,0l0,3.9q0,9.8,2.5,14.8t8.7,5q11.6,0,15.2-12.4l1.8,0.3q-1.9,7.2-6.85,11.2t-14.85,4q-12.9,0-19.35-6.65z M301.8,92.2l0-4.9q0-8.1-0.95-11.05t-3.8-2.95t-4.2,3.15t-1.35,10.85l0,4.9l10.3,0z M290.4,65.3l6.3-19.1l4.7-1q3.1-0.7,4.75,0.75t1.65,3.9t-2.9,5.05l-13.4,11.1z M347.2,96.5l2.9,0l0-7.7q0-9.5-1.05-12.75t-4.05-3.25q-1.8,0-3.25,0.95t-1.45,2.6t0.6,3.35l2.5,0q0.8,2.1,0.8,5.05t-2.5,5.1t-6.3,2.15q-8.6,0-8.6-8.3q0-12.3,20.9-12.3q11.9,0,16.45,4.05t4.55,14.85l0,20.3q0,5.2,2.9,5.2q3.4,0,4-10.3l1.5,0.1q-0.4,8.8-3.3,12.1t-9.5,3.3q-12,0-13.8-7.4q-1.3,3.8-3.9,5.6t-7.6,1.8q-14.8,0-14.8-12.1q0-7.1,5.65-9.75t17.35-2.65z M343.75,115.5q0.55,1.5,2.1,1.5t2.9-2.55t1.35-7.05l0-9.3l-0.7,0q-6.2,0-6.2,9.1l0,1.6q0,5.2,0.55,6.7z M378.1,72.4l24.1,0l0,9.2q3.3-10.2,14.55-10.2t13.65,10.8q3.5-10.8,14.7-10.8q14.7,0,14.7,16.7l0,30.1l5.6,0l0,1.8l-27.7,0l0-1.8l3.5,0l0-32.5q0-7.6-1.3-8.9q-0.6-0.6-1.6-0.6q-2.9,0-5.1,3.9t-2.2,9.9l0,28.2l3.6,0l0,1.8l-25.7,0l0-1.8l3.5,0l0-32.5q0-7.6-1.3-8.9q-0.6-0.6-1.6-0.6q-2.8,0-5.05,4.25t-2.25,10.15l0,27.6l3.6,0l0,1.8l-27.7,0l0-1.8l5.5,0l0-44l-5.5,0l0-1.8z M473.85,114.35q-6.45-6.65-6.45-18.5t7.25-18.15t18.45-6.3q22.7,0,21.8,22.8l-28.2,0l0,3.9q0,9.8,2.5,14.8t8.7,5q11.6,0,15.2-12.4l1.8,0.3q-1.9,7.2-6.85,11.2t-14.85,4q-12.9,0-19.35-6.65z M486.8,92.2l10.3,0l0-4.9q0-8.1-0.95-11.05t-3.8-2.95t-4.2,3.15t-1.35,10.85l0,4.9z"/></g></svg>
